<svg viewBox="0 0 16 16" version="1.1" width="16" height="16" xmlns="http://www.w3.org/2000/svg"><path fill="#ffffff" fill-rule="evenodd" d="M8 0C3.58 0 0 3.58 0 8c0 3.54 2.29 6.534 5.47 7.59.4.074.55-.174.55-.388 0-.19-.007-.693-.01-1.36-2.226.483-2.695-1.073-2.695-1.073-.364-.924-.89-1.171-.89-1.171-.727-.497.055-.487.055-.487.803.057 1.225.825 1.225.825.714 1.223 1.873.87 2.33.665.072-.517.28-.87.508-1.07-1.777-.202-3.644-.888-3.644-3.953 0-.873.312-1.588.824-2.148-.083-.203-.357-1.017.078-2.12 0 0 .672-.215 2.2.82A7.67 7.67 0 018 4.58c.68.003 1.36.092 2 .27 1.528-1.035 2.2-.82 2.2-.82.436 1.103.162 1.917.08 2.12.513.56.823 1.275.823 2.148 0 3.073-1.87 3.748-3.65 3.947.287.247.543.734.543 1.48 0 1.068-.01 1.93-.01 2.193 0 .216.15.466.552.387C13.71 14.53 16 11.54 16 8c0-4.42-3.58-8-8-8z"/></svg>
